<svg width="1350" height="119" viewBox="0 0 1350 119" fill="none" xmlns="http://www.w3.org/2000/svg">
<path d="M0.682388 116.278L39.9891 2.33478H66.9073L106.214 116.278H83.5782L75.4722 91.8072H31.4242L23.1652 116.278H0.682388ZM37.389 73.4539H69.5073L50.5422 16.7116H56.3541L37.389 73.4539ZM168.254 118.114C160.097 118.114 152.552 116.635 145.619 113.678C138.685 110.721 132.618 106.592 127.418 101.29C122.218 95.9877 118.14 89.768 115.183 82.6306C112.328 75.4932 110.9 67.693 110.9 59.2301C110.9 50.7672 112.277 42.967 115.03 35.8296C117.885 28.5902 121.861 22.3705 126.959 17.1704C132.16 11.8683 138.226 7.7898 145.16 4.93484C152.093 1.97791 159.639 0.499454 167.796 0.499454C175.953 0.499454 183.243 1.87595 189.667 4.62895C196.192 7.38195 201.698 11.0526 206.185 15.6409C210.671 20.1273 213.883 25.0725 215.82 30.4765L197.314 39.3473C195.173 33.4335 191.553 28.6412 186.455 24.9706C181.357 21.2999 175.137 19.4646 167.796 19.4646C160.658 19.4646 154.336 21.1469 148.83 24.5117C143.426 27.8765 139.195 32.5158 136.136 38.4297C133.179 44.3435 131.701 51.277 131.701 59.2301C131.701 67.1832 133.23 74.1676 136.289 80.1835C139.45 86.0973 143.783 90.7366 149.289 94.1014C154.795 97.4662 161.117 99.1486 168.254 99.1486C174.066 99.1486 179.419 98.027 184.314 95.7838C189.208 93.4386 193.133 90.1758 196.09 85.9953C199.047 81.7129 200.526 76.6657 200.526 70.8538V62.136L210.008 70.395H167.796V52.8064H221.326V64.2772C221.326 73.0461 219.848 80.7952 216.891 87.5248C213.934 94.2543 209.906 99.9133 204.808 104.502C199.812 108.988 194.153 112.404 187.831 114.749C181.51 116.992 174.984 118.114 168.254 118.114ZM237.786 116.278V2.33478H280.151C287.9 2.33478 294.732 3.76226 300.646 6.61723C306.661 9.37022 311.352 13.4487 314.717 18.8528C318.081 24.1548 319.764 30.6295 319.764 38.2767C319.764 46.1278 317.877 52.8064 314.105 58.3124C310.434 63.8184 305.438 67.8969 299.116 70.548L325.27 116.278H301.716L273.727 66.2655L287.187 74.2186H258.586V116.278H237.786ZM258.586 55.8653H280.457C284.23 55.8653 287.492 55.1516 290.245 53.7241C292.998 52.1946 295.14 50.1044 296.669 47.4534C298.199 44.8023 298.963 41.7434 298.963 38.2767C298.963 34.708 298.199 31.6491 296.669 29.1C295.14 26.449 292.998 24.4098 290.245 22.9823C287.492 21.4528 284.23 20.6881 280.457 20.6881H258.586V55.8653ZM395.033 118.114C386.672 118.114 378.872 116.635 371.632 113.678C364.393 110.721 358.071 106.592 352.667 101.29C347.263 95.9877 343.032 89.768 339.973 82.6306C337.016 75.3912 335.537 67.591 335.537 59.2301C335.537 50.7672 337.016 42.967 339.973 35.8296C342.93 28.6922 347.11 22.4725 352.514 17.1704C357.918 11.8683 364.24 7.7898 371.479 4.93484C378.719 1.97791 386.57 0.499454 395.033 0.499454C403.496 0.499454 411.347 1.97791 418.586 4.93484C425.825 7.89176 432.147 12.0213 437.551 17.3233C442.955 22.5234 447.136 28.6922 450.093 35.8296C453.151 42.967 454.681 50.7672 454.681 59.2301C454.681 67.591 453.151 75.3912 450.093 82.6306C447.034 89.768 442.802 95.9877 437.398 101.29C431.994 106.592 425.672 110.721 418.433 113.678C411.296 116.635 403.496 118.114 395.033 118.114ZM395.033 99.1486C400.641 99.1486 405.79 98.1799 410.48 96.2426C415.17 94.2034 419.249 91.3994 422.716 87.8307C426.284 84.262 428.986 80.0305 430.822 75.1363C432.759 70.2421 433.728 64.94 433.728 59.2301C433.728 53.5202 432.759 48.2691 430.822 43.4768C428.986 38.5826 426.284 34.3511 422.716 30.7824C419.249 27.1118 415.17 24.3078 410.48 22.3705C405.79 20.4332 400.641 19.4646 395.033 19.4646C389.527 19.4646 384.429 20.4332 379.738 22.3705C375.048 24.3078 370.918 27.1118 367.35 30.7824C363.883 34.3511 361.181 38.5826 359.244 43.4768C357.306 48.2691 356.338 53.5202 356.338 59.2301C356.338 64.94 357.306 70.2421 359.244 75.1363C361.181 80.0305 363.883 84.262 367.35 87.8307C370.918 91.3994 375.048 94.2034 379.738 96.2426C384.429 98.1799 389.527 99.1486 395.033 99.1486ZM527.166 118.114C519.009 118.114 511.463 116.635 504.53 113.678C497.597 110.721 491.53 106.592 486.33 101.29C481.13 95.9877 477.051 89.768 474.094 82.6306C471.239 75.4932 469.812 67.693 469.812 59.2301C469.812 50.7672 471.188 42.967 473.941 35.8296C476.796 28.5902 480.773 22.3705 485.871 17.1704C491.071 11.8683 497.138 7.7898 504.071 4.93484C511.005 1.97791 518.55 0.499454 526.707 0.499454C534.864 0.499454 542.154 1.87595 548.578 4.62895C555.104 7.38195 560.61 11.0526 565.096 15.6409C569.582 20.1273 572.794 25.0725 574.731 30.4765L556.225 39.3473C554.084 33.4335 550.464 28.6412 545.366 24.9706C540.268 21.2999 534.048 19.4646 526.707 19.4646C519.57 19.4646 513.248 21.1469 507.742 24.5117C502.338 27.8765 498.106 32.5158 495.047 38.4297C492.091 44.3435 490.612 51.277 490.612 59.2301C490.612 67.1832 492.142 74.1676 495.2 80.1835C498.361 86.0973 502.695 90.7366 508.201 94.1014C513.707 97.4662 520.028 99.1486 527.166 99.1486C532.978 99.1486 538.331 98.027 543.225 95.7838C548.119 93.4386 552.045 90.1758 555.002 85.9953C557.959 81.7129 559.437 76.6657 559.437 70.8538V62.136L568.92 70.395H526.707V52.8064H580.237V64.2772C580.237 73.0461 578.759 80.7952 575.802 87.5248C572.845 94.2543 568.818 99.9133 563.719 104.502C558.723 108.988 553.064 112.404 546.743 114.749C540.421 116.992 533.895 118.114 527.166 118.114ZM596.697 116.278V2.33478H617.497V97.925H666.287V116.278H596.697ZM732.884 118.114C724.523 118.114 716.723 116.635 709.484 113.678C702.244 110.721 695.923 106.592 690.519 101.29C685.115 95.9877 680.883 89.768 677.824 82.6306C674.867 75.3912 673.389 67.591 673.389 59.2301C673.389 50.7672 674.867 42.967 677.824 35.8296C680.781 28.6922 684.962 22.4725 690.366 17.1704C695.77 11.8683 702.091 7.7898 709.331 4.93484C716.57 1.97791 724.421 0.499454 732.884 0.499454C741.347 0.499454 749.198 1.97791 756.438 4.93484C763.677 7.89176 769.999 12.0213 775.403 17.3233C780.807 22.5234 784.987 28.6922 787.944 35.8296C791.003 42.967 792.533 50.7672 792.533 59.2301C792.533 67.591 791.003 75.3912 787.944 82.6306C784.885 89.768 780.654 95.9877 775.25 101.29C769.846 106.592 763.524 110.721 756.285 113.678C749.147 116.635 741.347 118.114 732.884 118.114ZM732.884 99.1486C738.492 99.1486 743.641 98.1799 748.332 96.2426C753.022 94.2034 757.1 91.3994 760.567 87.8307C764.136 84.262 766.838 80.0305 768.673 75.1363C770.611 70.2421 771.579 64.94 771.579 59.2301C771.579 53.5202 770.611 48.2691 768.673 43.4768C766.838 38.5826 764.136 34.3511 760.567 30.7824C757.1 27.1118 753.022 24.3078 748.332 22.3705C743.641 20.4332 738.492 19.4646 732.884 19.4646C727.378 19.4646 722.28 20.4332 717.59 22.3705C712.9 24.3078 708.77 27.1118 705.201 30.7824C701.735 34.3511 699.033 38.5826 697.095 43.4768C695.158 48.2691 694.189 53.5202 694.189 59.2301C694.189 64.94 695.158 70.2421 697.095 75.1363C699.033 80.0305 701.735 84.262 705.201 87.8307C708.77 91.3994 712.9 94.2034 717.59 96.2426C722.28 98.1799 727.378 99.1486 732.884 99.1486ZM811.028 116.278V2.33478H853.394C861.143 2.33478 867.974 3.76226 873.888 6.61723C879.904 9.37022 884.594 13.4487 887.959 18.8528C891.324 24.1548 893.006 30.6295 893.006 38.2767C893.006 46.1278 891.12 52.8064 887.347 58.3124C883.677 63.8184 878.68 67.8969 872.359 70.548L898.512 116.278H874.959L846.97 66.2655L860.429 74.2186H831.829V116.278H811.028ZM831.829 55.8653H853.7C857.472 55.8653 860.735 55.1516 863.488 53.7241C866.241 52.1946 868.382 50.1044 869.912 47.4534C871.441 44.8023 872.206 41.7434 872.206 38.2767C872.206 34.708 871.441 31.6491 869.912 29.1C868.382 26.449 866.241 24.4098 863.488 22.9823C860.735 21.4528 857.472 20.6881 853.7 20.6881H831.829V55.8653ZM939.71 116.278V65.8067L901.321 2.33478H925.028L954.393 51.8887H945.981L975.194 2.33478H998.9L960.664 65.6537V116.278H939.71ZM1031.81 116.278V20.6881H1002.29V2.33478H1081.82V20.6881H1052.76V116.278H1031.81ZM1094.51 116.278V2.33478H1115.31V116.278H1094.51ZM1137.23 116.278V2.33478H1157.11L1199.78 60.3007H1190.3L1232.06 2.33478H1251.94V116.278H1230.98V26.0412L1239.09 28.0294L1195.81 85.6895H1193.36L1151.15 28.0294L1158.03 26.0412V116.278H1137.23ZM1273.74 116.278V2.33478H1349.45V20.6881H1294.54V49.9005H1346.39V68.2538H1294.54V97.925H1349.45V116.278H1273.74Z" fill="white"/>
</svg>
